<?xml version="1.0" encoding="UTF-8" standalone="no"?>
<svg
   width="510"
   height="200"
   viewBox="0 0 510 200"
   data-name="Layer 1"
   id="Layer_1"
   version="1.1"
   sodipodi:docname="logo.svg"
   inkscape:version="1.1.2 (b8e25be833, 2022-02-05)"
   xmlns:inkscape="http://www.inkscape.org/namespaces/inkscape"
   xmlns:sodipodi="http://sodipodi.sourceforge.net/DTD/sodipodi-0.dtd"
   xmlns="http://www.w3.org/2000/svg"
   xmlns:svg="http://www.w3.org/2000/svg">
  <defs
     id="defs25" />
  <sodipodi:namedview
     id="namedview23"
     pagecolor="#ffffff"
     bordercolor="#666666"
     borderopacity="1.0"
     inkscape:pageshadow="2"
     inkscape:pageopacity="0.0"
     inkscape:pagecheckerboard="0"
     showgrid="false"
     inkscape:zoom="0.97375"
     inkscape:cx="194.60847"
     inkscape:cy="253.14506"
     inkscape:window-width="1920"
     inkscape:window-height="1001"
     inkscape:window-x="-9"
     inkscape:window-y="41"
     inkscape:window-maximized="1"
     inkscape:current-layer="Layer_1"
     width="201px"
     height="199px" />
  <title
     id="title18" />
  <style
     type="text/css"
     id="style1253">
	.st0{fill:#333333;}
	.st1{fill:none;stroke:#333333;stroke-width:32;stroke-linecap:round;stroke-linejoin:round;stroke-miterlimit:10;}
</style>
  <g
     id="g1272"
     transform="matrix(0.38382541,0,0,0.38382541,-115.55261,118.49341)">
    <g
       id="Layer_1-0" />
    <g
       id="Layer_2">
      <g
         id="g1258" />
    </g>
  </g>
  <path
     d="m 196.04316,91.568742 c -0.43272,-6.629414 -6.15766,-11.652809 -12.78706,-11.220076 -6.6294,0.432716 -11.65278,6.157679 -11.22006,12.787075 1.54347,18.589489 -4.08361,37.065099 -15.72731,51.638239 C 131.21838,175.39713 85.383691,180.10457 54.760505,155.01423 24.040624,130.51717 19.333202,84.682441 44.423545,54.05929 69.513869,23.436117 115.34856,18.728714 145.97175,43.819041 c 5.03571,4.184524 12.51017,3.49448 16.69473,-1.541219 4.18453,-5.03573 3.49452,-12.510174 -1.5412,-16.694698 C 119.79783,-8.5606258 59.738138,-2.5183663 25.594387,38.809038 -17.965407,91.719298 6.0446898,171.9057 71.513619,192.17056 136.98254,212.43543 202.09459,159.83532 196.04316,91.568742 Z M 63.994296,83.437768 c -4.982275,-4.512145 -12.784798,-4.224779 -17.19123,0.85126 -30.734953,35.405362 -4.131068,12.67905 0.851224,17.191192 l 42.623558,37.40019 c 1.761571,1.52815 3.926684,2.51557 6.235535,2.8437 3.728457,0.52786 7.496917,-0.64621 10.265717,-3.19841 l 75.3485,-69.932325 c 5.02324,-4.662154 28.682,17.705339 0.33527,-16.997771 -4.33553,-5.307706 -11.95956,-4.981197 -16.99779,-0.335297 L 98.093125,113.3579 Z"
     id="path20-1-9"
     sodipodi:nodetypes="cscccscsccsccsccccssscc"
     style="fill:#00aa13;fill-opacity:1;stroke-width:1.20184;stroke-miterlimit:4;stroke-dasharray:none"
     inkscape:export-filename="G:\Checkspec\image\logo.png"
     inkscape:export-xdpi="96"
     inkscape:export-ydpi="96" />
  <text
     xml:space="preserve"
     style="font-style:normal;font-weight:normal;font-size:61.2152px;line-height:1.25;font-family:sans-serif;fill:#00aa13;fill-opacity:1;stroke:none;stroke-width:1;stroke-miterlimit:4;stroke-dasharray:none"
     x="218.44296"
     y="121.08756"
     id="text1261"
     inkscape:export-filename="G:\Checkspec\image\logo.png"
     inkscape:export-xdpi="96"
     inkscape:export-ydpi="96"><tspan
       sodipodi:role="line"
       id="tspan1259"
       x="218.44296"
       y="121.08756"
       style="font-style:normal;font-variant:normal;font-weight:bold;font-stretch:normal;font-family:artifika;-inkscape-font-specification:artifika;fill:#00aa13;fill-opacity:1;stroke:#00aa13;stroke-width:1;stroke-miterlimit:4;stroke-dasharray:none;stroke-opacity:1">CEKSPEK</tspan></text>
</svg>
